<?xml version="1.0" standalone="no"?>
<!DOCTYPE svg PUBLIC "-//W3C//DTD SVG 20010904//EN"
 "http://www.w3.org/TR/2001/REC-SVG-20010904/DTD/svg10.dtd">
<svg version="1.0" xmlns="http://www.w3.org/2000/svg"
 width="653.000000pt" height="591.000000pt" viewBox="0 0 653.000000 591.000000"
 preserveAspectRatio="xMidYMid meet">

<g transform="translate(0.000000,591.000000) scale(0.100000,-0.100000)"
fill="#0000AA" stroke="none">
<path d="M3989 5444 c-93 -78 -151 -128 -183 -156 -130 -112 -269 -231 -371
-316 -165 -138 -223 -193 -235 -222 -6 -15 -9 -84 -8 -170 l3 -145 68 -3 67
-3 0 121 c0 112 2 123 23 144 20 22 131 117 442 381 65 55 150 128 189 162 39
35 79 63 88 63 9 0 118 -72 243 -160 124 -88 230 -160 235 -160 4 0 10 -4 12
-9 2 -6 163 -122 313 -226 17 -11 57 -40 90 -65 33 -25 90 -65 126 -90 207
-141 220 -153 243 -220 14 -40 16 -226 16 -1691 0 -1493 -1 -1647 -16 -1653
-27 -10 -304 -7 -325 4 -19 11 -19 35 -19 1428 l1 1417 -38 32 c-38 32 -122
92 -223 161 -30 20 -64 45 -75 55 -48 44 -109 77 -129 71 -12 -4 -23 -9 -26
-11 -3 -3 -6 -711 -8 -1575 -1 -864 -5 -1575 -8 -1579 -3 -5 -108 -9 -235 -9
-258 0 -241 -5 -295 82 -15 24 -38 57 -51 73 -26 34 -34 44 -48 67 -49 80
-382 558 -399 573 -6 6 -17 23 -24 39 -7 17 -26 46 -41 65 -16 20 -65 90 -109
156 -138 204 -163 240 -173 243 -5 2 -9 8 -9 13 0 11 -110 171 -125 181 -5 4
-6 8 -1 8 5 0 1 10 -10 22 -11 13 -33 42 -49 66 -26 39 -27 45 -14 69 8 15 20
34 28 43 18 20 140 210 135 210 -2 0 5 9 16 20 11 11 20 27 20 35 0 8 5 15 10
15 6 0 16 12 23 28 6 15 17 32 24 37 6 6 13 17 15 25 2 8 11 21 21 28 9 7 17
19 17 27 0 8 13 28 29 45 16 18 35 44 42 58 8 15 17 32 21 37 34 44 138 207
138 214 0 5 4 11 8 13 12 5 295 432 295 446 0 6 4 12 8 12 4 0 30 35 58 78 27
42 76 115 108 162 32 47 58 91 59 97 2 10 -78 13 -379 13 -210 0 -387 -4 -393
-8 -12 -7 -274 -379 -274 -388 0 -3 -5 -10 -11 -17 -23 -25 -179 -259 -179
-268 0 -5 -4 -9 -8 -9 -5 0 -15 -12 -23 -27 -8 -16 -17 -30 -20 -33 -7 -5
-117 -162 -229 -325 -84 -123 -103 -130 -150 -53 -14 23 -34 51 -45 64 -11 12
-33 44 -50 70 -34 54 -47 74 -91 135 -17 24 -57 82 -89 129 -78 115 -99 144
-105 150 -3 3 -21 30 -40 60 -19 30 -40 59 -47 63 -7 4 -13 14 -13 21 0 7 -9
21 -20 31 -11 10 -20 22 -20 26 0 8 -32 56 -104 154 -25 33 -45 64 -45 68 -1
9 -69 100 -100 135 l-20 22 -380 0 c-298 0 -379 -3 -377 -12 2 -19 59 -112
121 -200 30 -43 52 -78 50 -78 -3 0 2 -8 9 -17 29 -36 286 -424 286 -432 0 -5
7 -15 16 -22 9 -7 19 -20 23 -29 3 -9 69 -109 146 -224 77 -114 147 -218 155
-231 8 -12 37 -56 64 -96 102 -153 126 -190 126 -194 0 -3 36 -57 74 -110 10
-14 -10 -75 -25 -75 -5 0 -9 -6 -9 -13 0 -8 -9 -22 -20 -32 -11 -10 -20 -22
-20 -27 0 -5 -18 -33 -40 -63 -22 -30 -40 -57 -40 -61 0 -3 -15 -25 -32 -47
-18 -23 -37 -49 -43 -58 -5 -10 -24 -37 -41 -61 -51 -73 -159 -230 -207 -302
-6 -10 -26 -37 -42 -60 -17 -22 -40 -54 -50 -70 -11 -16 -27 -39 -35 -51 -8
-12 -32 -46 -52 -76 -21 -30 -76 -109 -123 -177 -47 -67 -85 -126 -85 -131 0
-5 -7 -14 -15 -21 -8 -6 -31 -37 -51 -68 -21 -30 -44 -63 -53 -73 -31 -34 -41
-49 -53 -74 -6 -14 -14 -25 -18 -25 -4 0 -13 -13 -20 -30 -7 -17 -15 -30 -19
-30 -3 0 -24 -27 -46 -60 -22 -33 -43 -60 -47 -60 -5 0 -8 -4 -8 -10 0 -7 159
-10 458 -10 l457 0 35 52 c19 28 40 58 45 67 41 64 67 101 94 135 17 21 31 45
31 52 0 8 5 14 10 14 6 0 16 12 23 27 6 15 19 35 27 44 8 9 21 24 28 35 7 10
42 62 78 114 36 52 99 145 140 205 84 123 148 215 161 230 5 6 12 17 16 25 4
8 27 42 52 75 25 33 51 70 57 83 6 12 15 22 19 22 5 0 20 -21 35 -47 37 -63
178 -273 201 -298 10 -11 25 -33 33 -48 8 -16 25 -40 37 -53 13 -14 23 -27 23
-30 0 -9 127 -195 177 -259 4 -5 14 -22 22 -37 8 -16 18 -28 23 -28 4 0 8 -6
8 -14 0 -8 8 -21 18 -28 9 -7 25 -30 36 -50 10 -20 26 -45 35 -55 9 -10 34
-45 55 -78 20 -33 52 -80 70 -105 l33 -45 1368 -3 c1263 -2 1370 -1 1387 15
19 17 25 63 7 63 -5 0 -8 4 -5 9 11 17 -27 21 -217 21 -106 0 -198 4 -204 8
-10 6 -13 361 -16 1678 -1 918 -5 1678 -9 1689 -3 11 -11 38 -17 60 -16 61
-58 103 -198 200 -70 49 -132 93 -138 98 -11 10 -183 130 -264 185 -29 20 -66
46 -81 57 -15 11 -104 74 -196 139 -93 66 -212 151 -264 190 -92 68 -118 87
-196 141 -53 36 -81 32 -145 -21z m829 -1612 l42 -34 0 -354 c0 -206 -4 -354
-9 -354 -5 0 -31 17 -58 38 -26 21 -68 52 -93 68 -25 16 -48 33 -52 39 -13 17
-10 689 3 702 12 12 60 -19 167 -105z m-78 -841 c36 -27 77 -62 93 -77 l27
-27 0 -368 c0 -245 -3 -370 -10 -374 -6 -4 -36 13 -67 37 -30 23 -75 57 -99
73 l-44 30 0 371 c0 204 3 374 7 377 13 13 29 6 93 -42z m4 -953 c39 -29 81
-62 93 -72 l23 -20 0 -458 0 -458 -22 -5 c-13 -3 -61 -5 -108 -3 l-85 3 -3
520 c-1 286 0 526 3 533 8 21 25 14 99 -40z"/>
</g>
</svg>
